<svg xmlns="http://www.w3.org/2000/svg" width="20" height="19" viewBox="0 0 21 19"><path d="M1.773 1.879C-1.328 5.164-.53 8.254 4.88 13.793l4.969 5.066 2.484-1.879c4.172-3.187 8.074-8.44 8.074-10.882 0-2.72-2.843-6.098-5.148-6.098-.887 0-2.395.563-3.281 1.313-1.512 1.125-1.954 1.125-3.461 0-2.485-1.782-4.7-1.594-6.743.566zM8.25 3.004l1.953 2.16 1.953-2.16C13.22 1.879 14.551.937 15.078.937c1.332 0 4.438 3.567 4.438 5.16 0 1.786-7.805 10.794-9.313 10.794C8.695 16.89.887 7.883.887 6.098c0-1.594 3.105-5.16 4.433-5.16.535 0 1.867.94 2.93 2.066zm0 0"/></svg>