<svg xmlns="http://www.w3.org/2000/svg" width="20" height="20"><path style="stroke:none;fill-rule:nonzero;fill:#000;fill-opacity:1" d="M9.512.023c-.93.149-1.739.559-2.344 1.192-.613.644-.965 1.367-1.074 2.222-.016.141-.04.278-.063.418-.011.04-.293.051-1.246.051-1.351 0-1.379.004-1.543.235-.078.109-.12.53-.668 6.671-.39 4.383-.578 6.626-.562 6.778.07.676.496 1.383 1.086 1.8.324.227.578.352.992.481l.344.11h11.132l.344-.11c.356-.101.692-.266.992-.48.598-.426 1.028-1.141 1.086-1.825.016-.16-.175-2.453-.558-6.746-.465-5.199-.598-6.53-.649-6.633a.596.596 0 0 0-.191-.203c-.117-.074-.203-.078-1.367-.078-.957 0-1.243-.011-1.254-.05a7.17 7.17 0 0 1-.063-.418c-.05-.387-.207-.93-.355-1.22A4.066 4.066 0 0 0 10.918.114C10.609.035 9.77-.016 9.512.023zm1.11 1.153c.917.207 1.75.941 2.054 1.82.105.297.195.809.156.871-.016.028-.96.04-2.832.04-1.871 0-2.816-.012-2.832-.04-.04-.062.05-.574.156-.87.125-.36.301-.645.598-.97.469-.504 1.043-.8 1.785-.91.164-.023.703.012.914.059zm-4.56 4.777.012.953.098.106c.281.304.691.27.898-.07.07-.114.078-.204.078-1.036V5h5.704v.906c0 .84.007.922.078 1.04a.53.53 0 0 0 .468.273.53.53 0 0 0 .47-.274c.07-.117.077-.199.077-1.039V5h1.856l.55 6.184c.372 4.171.54 6.238.52 6.359-.094.594-.637 1.11-1.363 1.289-.176.047-1.16.055-5.508.055s-5.332-.008-5.508-.055c-.726-.18-1.27-.695-1.363-1.289-.02-.125.144-2.125.512-6.234.293-3.332.535-6.114.539-6.184V5h1.87zm0 0"/></svg>