<svg xmlns="http://www.w3.org/2000/svg" width="19" height="20"><path style="stroke:none;fill-rule:nonzero;fill:#000;fill-opacity:1" d="M4.457 1.184C2.027 2.274 0 5.926 0 8.988c0 1.086 1.215 3.063 2.633 4.446 2.027 2.074 3.246 2.468 6.285 2.074 3.039-.297 4.254.097 6.484 2.074 3.75 3.355 4.965 1.973 1.418-1.68-2.43-2.468-2.633-3.062-1.52-5.336 1.52-3.355-.202-7.898-3.75-9.48C8.513-.2 7.298-.2 4.458 1.184zm7.703 2.765c2.531 2.473 2.531 5.434 0 7.903C8.31 15.605 2.027 13.039 2.027 7.703c0-2.371 3.547-5.726 6.078-5.726 1.118 0 2.942.886 4.055 1.972zm0 0"/></svg>